<svg xmlns="http://www.w3.org/2000/svg" viewBox="0 0 800 450" width="800" height="450">
  <defs>
    <radialGradient id="bg" cx="50%" cy="38%" r="95%">
      <stop offset="0%" stop-color="#1e293b"/>
      <stop offset="55%" stop-color="#0f172a"/>
      <stop offset="100%" stop-color="#020617"/>
    </radialGradient>
    <linearGradient id="accentFade" x1="0%" y1="0%" x2="100%" y2="100%">
      <stop offset="0%" stop-color="#38bdf8" stop-opacity="0.95"/>
      <stop offset="100%" stop-color="#38bdf8" stop-opacity="0.35"/>
    </linearGradient>
    <pattern id="dots" width="28" height="28" patternUnits="userSpaceOnUse">
      <circle cx="1.5" cy="1.5" r="1.5" fill="#ffffff" fill-opacity="0.05"/>
    </pattern>
    <radialGradient id="glow" cx="50%" cy="50%" r="50%">
      <stop offset="0%" stop-color="#38bdf8" stop-opacity="0.4"/>
      <stop offset="100%" stop-color="#38bdf8" stop-opacity="0"/>
    </radialGradient>
    <clipPath id="clip"><rect width="800" height="450" rx="0"/></clipPath>
  </defs>
  <g clip-path="url(#clip)">
    <rect width="800" height="450" fill="url(#bg)"/>
    <rect width="800" height="450" fill="url(#dots)"/>
    <circle cx="400" cy="225" r="280" fill="url(#glow)"/>
    <line x1="0" y1="0" x2="800" y2="450" stroke="#38bdf8" stroke-opacity="0.06" stroke-width="1"/>
    <line x1="800" y1="0" x2="0" y2="450" stroke="#38bdf8" stroke-opacity="0.06" stroke-width="1"/>

    <g transform="translate(295,105) scale(10)" fill="none" stroke="url(#accentFade)" stroke-width="1.05" stroke-linecap="round" stroke-linejoin="round">
      <path d="M17.596 12.768a2 2 0 1 0 2.829-2.829l-1.768-1.767a2 2 0 0 0 2.828-2.829l-2.828-2.828a2 2 0 0 0-2.829 2.828l-1.767-1.768a2 2 0 1 0-2.829 2.829z"/><path d="m2.5 21.5 1.4-1.4"/><path d="m20.1 3.9 1.4-1.4"/><path d="M5.343 21.485a2 2 0 1 0 2.829-2.828l1.767 1.768a2 2 0 1 0 2.829-2.829l-6.364-6.364a2 2 0 1 0-2.829 2.829l1.768 1.767a2 2 0 0 0-2.828 2.829z"/><path d="m9.6 14.4 4.8-4.8"/>
    </g>

    <text x="28" y="38" font-family="'JetBrains Mono','Fira Code',monospace" font-size="14" fill="#38bdf8" fill-opacity="0.7">~/gymhub</text>
  </g>
</svg>